<?xml version="1.0" encoding="UTF-8"?>
<svg width="240px" height="240px" viewBox="0 0 240 240" version="1.1" xmlns="http://www.w3.org/2000/svg" xmlns:xlink="http://www.w3.org/1999/xlink">
    <title>240x240</title>
    <g id="240x240" stroke="none" stroke-width="1" fill="none" fill-rule="evenodd">
        <g id="Group-4-Copy" transform="translate(10.000000, 16.000000)">
            <path d="M172.223105,22.8778818 L173.73549,22.8783273 C180.857305,22.8944227 194.100414,23.1255534 203.589489,24.5978796 C206.893184,25.1104814 209.75038,25.7783207 211.770106,26.6262738 C213.985207,27.5562518 215.17805,28.7594129 215.41371,30.0403464 C215.905713,32.7141489 216.065482,35.1657053 215.963833,37.5249822 C215.893974,39.1707628 215.695916,40.7691244 215.393428,42.3646232 C217.421862,43.4104238 218.776714,45.2311897 219.640956,47.5735583 C220.767848,50.6277926 221.042654,54.5949385 221.042654,58.6754436 C221.042654,59.9708609 221.00594,61.5288736 220.969624,63.0649721 C220.930097,64.7383991 220.89966,66.0227435 220.89966,67.4915183 L220.89966,67.4915183 L220.899339,143.824652 C220.893682,147.835916 220.801573,150.847568 219.731673,153.45773 C218.543257,156.353865 216.304985,158.603682 211.800995,160.678697 C211.38317,160.870328 210.965336,161.060191 210.546266,161.245802 C210.501127,161.400339 210.444483,161.596059 210.369401,161.856604 C208.02749,169.97606 206.253861,175.315976 200.923054,177.089007 C197.307585,178.29108 192.283728,179.202682 187.091074,179.832652 C180.897103,180.58616 174.396593,180.950725 169.811838,180.962171 C164.701832,180.980415 157.952299,180.614032 151.529553,179.832693 C146.33656,179.202682 141.312702,178.29108 137.697126,177.088971 C132.460158,175.347151 130.656272,170.159499 128.373848,162.28257 C127.456407,161.806391 126.56762,161.403046 125.687591,161.003094 C125.449862,160.895052 125.212739,160.787283 124.974366,160.677828 C120.475313,158.603506 118.233834,156.356878 117.045427,153.45736 C115.975341,150.846745 115.881149,147.834883 115.877765,143.824351 L115.877765,143.824351 L115.877591,67.4915183 C115.877591,66.0234742 115.847187,64.7397686 115.816251,63.4301449 C115.771119,61.517574 115.734597,59.9644422 115.734597,58.6754436 C115.734597,54.0814708 116.090514,49.6344251 117.605845,46.4586587 C118.757741,44.0445643 120.545554,42.3157946 123.273611,41.6704759 C123.041437,40.3052502 122.88811,38.9328889 122.828073,37.5255829 C122.726394,35.162322 122.886199,32.7107139 123.378164,30.0403791 C123.613831,28.7594129 124.806674,27.5562518 127.021774,26.6262738 C129.041501,25.7783207 131.898697,25.1104814 135.202392,24.5978796 C144.691467,23.1255534 157.934575,22.8944227 165.058442,22.8783247 L165.058442,22.8783247 L166.570817,22.8778832 C167.732088,22.8798156 168.645922,22.8865327 169.244792,22.8909757 C169.482539,22.8898049 169.721137,22.8884746 169.964927,22.8871155 C170.645362,22.8833221 171.366128,22.8793058 172.223105,22.8778818 L172.223105,22.8778818 Z" id="Path" stroke="#680966" stroke-width="2.08530806" fill="#FFFFFF"></path>
            <path d="M209.678996,160.48464 C209.621798,160.690475 209.545535,160.950144 209.367587,161.567649 C207.171831,169.18038 205.65927,174.414925 200.594098,176.099606 C197.031953,177.283949 192.081176,178.176957 186.965161,178.797628 C180.58762,179.573468 173.882781,179.934471 169.310144,179.919344 C164.734329,179.937638 158.032668,179.573468 151.655126,178.797628 C146.539111,178.176957 141.588334,177.283949 138.02619,176.099606 C132.961017,174.414925 131.448456,169.177214 129.252701,161.567649 L129.195503,161.368147 C127.927621,160.855143 126.666095,160.307305 125.410923,159.730967 C121.241848,157.808784 119.116001,155.759933 118.010179,153.06191 C116.939311,150.449388 116.920245,147.412529 116.920245,143.317994 L116.920245,67.4915183 C116.920245,65.9841722 116.888469,64.6699944 116.856692,63.3241497 C116.818561,61.7028026 116.777251,60.0402885 116.777251,58.6754436 C116.777251,50.7967101 117.762322,43.3328135 124.489405,42.5126399 C124.15893,40.8532925 123.94285,39.1939451 123.869764,37.4807639 C123.771257,35.1912445 123.926961,32.8162244 124.403609,30.2290358 C125.620648,23.6138131 163.269433,23.8893154 169.243413,23.9336491 L169.39594,23.9336491 L169.548467,23.9336491 C175.522448,23.8893154 213.171232,23.6138131 214.388272,30.2290358 C214.864919,32.8193911 215.020624,35.1944112 214.922117,37.4807639 C214.842676,39.3522798 214.591641,41.1604618 214.207146,42.9749772 C219.208765,44.88766 220,51.6137171 220,58.6754436 C220,60.0434552 219.958691,61.7059693 219.920559,63.3241497 C219.888782,64.6699944 219.857006,65.9841722 219.857006,67.4915183 L219.857006,143.317994 C219.857006,147.412529 219.83794,150.449388 218.767072,153.06191 C217.66125,155.756766 215.538581,157.808784 211.366328,159.730967 C210.807062,159.987469 210.247795,160.240804 209.685351,160.48464 L209.678996,160.48464 Z M171.807776,77.1689337 L171.677492,77.1467668 L171.521787,77.1214333 L171.366083,77.0992664 L171.210378,77.0770996 L171.054673,77.0549327 L170.898968,77.0359325 L170.743263,77.0169324 L170.584381,76.9979322 L170.425499,76.9789321 L170.266616,76.9630986 L170.107734,76.9472651 L169.948851,76.9314317 L169.789969,76.9187649 L169.631086,76.9060981 L169.472204,76.8934313 L169.313321,76.8839313 L169.154439,76.8744312 L169.008267,79.4046193 L169.151261,79.4141194 L169.294256,79.4236195 L169.43725,79.4331195 L169.580244,79.4457863 L169.723238,79.4584531 L169.866232,79.4711199 L170.009227,79.4837866 L170.152221,79.4996201 L170.295215,79.5154536 L170.438209,79.531287 L170.578026,79.5502872 L170.717842,79.5692874 L170.857659,79.5882875 L170.997475,79.6072877 L171.137292,79.6294545 L171.277108,79.6516214 L171.407392,79.6737882 L171.807776,77.1721004 L171.807776,77.1689337 Z M172.583122,71.2313833 L172.452839,71.2092165 L172.297134,71.1838829 L172.141429,71.1617161 L171.985724,71.1395492 L171.830019,71.1173824 L171.674315,71.0983822 L171.51861,71.0793821 L171.359727,71.0603819 L171.200845,71.0413817 L171.041962,71.0255483 L170.88308,71.0097148 L170.724198,70.9938813 L170.565315,70.9812146 L170.406433,70.9685478 L170.24755,70.955881 L170.088668,70.9463809 L169.929785,70.9368808 L169.783613,73.467069 L169.926608,73.476569 L170.069602,73.4860691 L170.212596,73.4955692 L170.35559,73.508236 L170.498585,73.5209028 L170.641579,73.5335695 L170.784573,73.5462363 L170.927567,73.5620698 L171.070561,73.5779032 L171.213556,73.5937367 L171.353372,73.6127369 L171.493189,73.631737 L171.633005,73.6507372 L171.772822,73.6697373 L171.912638,73.6919042 L172.052455,73.7140711 L172.182738,73.7362379 L172.583122,71.23455 L172.583122,71.2313833 Z M165.833796,71.2408834 L165.964079,71.2187166 L166.119784,71.193383 L166.275489,71.1712162 L166.431194,71.1490493 L166.586899,71.1268825 L166.742603,71.1078823 L166.898308,71.0888821 L167.057191,71.069882 L167.216073,71.0508818 L167.374956,71.0350483 L167.533838,71.0192149 L167.69272,71.0033814 L167.851603,70.9907146 L168.010485,70.9780479 L168.169368,70.9653811 L168.32825,70.955881 L168.487133,70.9463809 L168.633305,73.476569 L168.49031,73.4860691 L168.347316,73.4955692 L168.204322,73.5050693 L168.061328,73.5177361 L167.918334,73.5304028 L167.775339,73.5430696 L167.632345,73.5557364 L167.489351,73.5715698 L167.346357,73.5874033 L167.203363,73.6032368 L167.063546,73.6222369 L166.923729,73.6412371 L166.783913,73.6602373 L166.644096,73.6792374 L166.50428,73.7014043 L166.364463,73.7235711 L166.23418,73.745738 L165.833796,71.2440501 L165.833796,71.2408834 Z M142.001429,39.8906177 C141.562913,39.8906177 141.207016,39.535948 141.207016,39.0989443 C141.207016,38.6619406 141.562913,38.3072709 142.001429,38.3072709 L197.610285,38.3072709 C198.048801,38.3072709 198.404698,38.6619406 198.404698,39.0989443 C198.404698,39.535948 198.048801,39.8906177 197.610285,39.8906177 L142.001429,39.8906177 Z M165.878283,77.2861013 L165.744822,77.3082682 L165.627249,77.330435 L165.509676,77.3526019 L165.392103,77.3747688 L165.27453,77.3969356 L165.156957,77.4191025 L165.039384,77.444436 L164.921811,77.4697696 L164.804238,77.4951031 L164.689842,77.5204367 L164.575447,77.5489369 L164.461051,77.5774371 L164.346656,77.6059374 L164.232261,77.6344376 L164.117865,77.6629379 L164.00347,77.6946048 L163.889075,77.7262717 L163.774679,77.7579387 L163.660284,77.7896056 L163.545889,77.8212725 L163.431493,77.8561062 L163.228124,77.91944 L163.997115,80.3324605 C164.089267,80.3039602 164.178241,80.27546 164.270393,80.2501265 L164.467407,80.193126 C164.565914,80.1646257 164.664421,80.1392922 164.762928,80.1107919 C164.861435,80.0854584 164.96312,80.0601248 165.061627,80.0347913 L165.261819,79.9872909 L165.363504,79.965124 L165.465189,79.9429572 L165.566873,79.9207903 L165.668558,79.8986235 L165.871928,79.8574565 C165.973612,79.8384563 166.075297,79.8194561 166.176982,79.800456 L166.294555,79.7814558 L165.878283,77.2829346 L165.878283,77.2861013 Z M160.695537,78.9232819 L160.609741,78.9644489 L160.504879,79.015116 L160.400016,79.0657831 L160.298331,79.1164502 L160.196647,79.170284 L160.094962,79.2241178 L159.993277,79.2779515 L159.891592,79.3317853 L159.789908,79.3856191 L159.688223,79.4426196 L159.586538,79.4996201 L159.484853,79.5566206 L159.386346,79.6136211 L159.287839,79.6706215 L159.189332,79.7307887 L159.090825,79.7909559 L158.992318,79.8511231 L158.893811,79.9112903 L158.795303,79.9714574 L158.696796,80.0347913 L158.601467,80.0981252 L158.506137,80.161459 L158.3409,80.2691266 L159.764486,82.3686444 C159.89477,82.2831437 160.025054,82.197643 160.155337,82.1153089 L160.323753,82.010808 C160.495346,81.9063072 160.666939,81.804973 160.841709,81.7068055 C161.01648,81.608638 161.191251,81.5136372 161.369199,81.4218031 C161.458173,81.3743027 161.547147,81.3299689 161.639299,81.2856352 L161.81407,81.2001345 L160.695537,78.9232819 Z M156.195987,81.9411408 L156.062525,82.0614751 L155.976729,82.1406425 L155.89411,82.2198098 L155.811491,82.2989772 L155.728872,82.3781445 L155.563634,82.5364792 L155.481016,82.6156465 L155.401574,82.6979805 L155.242692,82.8626486 L155.163251,82.9449826 L155.083809,83.0273167 L155.004368,83.1096507 L154.924927,83.1951514 L154.848663,83.2806521 L154.7724,83.3661529 L154.696136,83.4516536 L154.619873,83.5371543 L154.543609,83.622655 L154.467345,83.7081558 L154.39426,83.7968232 L154.308463,83.8981574 L156.269072,85.5100044 C156.354869,85.4086702 156.443843,85.307336 156.52964,85.2060018 C156.685344,85.0318337 156.841049,84.8608322 156.999932,84.6929974 C157.092084,84.5979966 157.184235,84.5029958 157.279565,84.407995 C157.374894,84.3161609 157.470224,84.2211601 157.565553,84.129326 C157.676771,84.0216584 157.791166,83.9171575 157.905562,83.8158233 L156.195987,81.9411408 Z M152.722816,86.092676 L152.64973,86.2130103 L152.589355,86.3111778 L152.52898,86.4093453 L152.471782,86.5075128 L152.414584,86.6056803 L152.357387,86.7070145 L152.300189,86.8083487 L152.242991,86.9096829 L152.188971,87.0110171 L152.134951,87.1123513 L152.080931,87.2136855 L152.026911,87.3150197 L151.972891,87.4163539 L151.922049,87.5176881 L151.871206,87.6221889 L151.820364,87.7266898 L151.769522,87.8311907 L151.718679,87.9356916 L151.667837,88.0401925 L151.620172,88.1446934 L151.572507,88.2491943 L151.524843,88.3536951 L151.46129,88.4930297 L153.796862,89.4937048 C153.908079,89.2403693 154.025652,88.9933672 154.146403,88.7463651 C154.19089,88.6576977 154.238555,88.5690303 154.283042,88.4771962 C154.375194,88.2998614 154.470523,88.1256932 154.56903,87.9515251 C154.673893,87.7710235 154.778755,87.590522 154.886795,87.4163539 L152.722816,86.0863426 L152.722816,86.092676 Z M150.55566,91.0548847 L150.511173,91.2195528 L150.482574,91.3335537 L150.453975,91.4475547 L150.425376,91.5615557 L150.396777,91.6755566 L150.368178,91.7895576 L150.342757,91.9035586 L150.317336,92.0207262 L150.291915,92.1378939 L150.266494,92.2550615 L150.24425,92.3722292 L150.222006,92.4893969 L150.199763,92.6065645 L150.177519,92.7237322 L150.155276,92.8408998 L150.13621,92.9580675 L150.117144,93.0752352 L150.098078,93.1924028 L150.079012,93.3095705 L150.063124,93.4267381 L150.047236,93.5470725 L150.024992,93.7117406 L152.548046,94.0157431 L152.563934,93.882742 L152.576644,93.7782411 L152.608421,93.572406 L152.640197,93.366571 L152.656086,93.2652368 C152.675151,93.1639026 152.69104,93.0625684 152.713283,92.9612342 L152.754593,92.7585658 L152.776836,92.6572316 L152.79908,92.5558974 L152.821323,92.4545632 L152.843567,92.353229 L152.891232,92.1537274 C152.916653,92.0555599 152.942074,91.9542257 152.967495,91.8560582 L153.008805,91.7072236 L150.55566,91.0453846 L150.55566,91.0548847 Z M149.881998,96.4192635 L149.885176,96.590265 L149.888353,96.713766 L149.891531,96.8372671 L149.897886,96.9607681 L149.904242,97.0811025 L149.910597,97.2014368 L149.916952,97.3217712 L149.926485,97.4421055 L149.936018,97.5624399 L149.945551,97.6827742 L149.955084,97.8031086 L149.964617,97.9234429 L149.977328,98.0437773 L149.990038,98.1641116 L150.002749,98.284446 L150.015459,98.4047803 L150.031348,98.5251147 L150.047236,98.645449 L150.063124,98.7657834 L150.079012,98.8829511 L150.098078,99.0001187 L150.117144,99.1172864 L152.627487,98.718283 L152.611599,98.6169488 L152.579822,98.4111137 L152.567111,98.3066128 L152.554401,98.202112 L152.54169,98.0976111 L152.52898,97.9931102 L152.516269,97.8886093 L152.506736,97.7841084 L152.497203,97.6796075 L152.478137,97.4706058 L152.468604,97.3661049 L152.462249,97.261604 L152.455894,97.1571031 L152.449538,97.0526022 L152.443183,96.9481013 L152.43365,96.7359329 L152.430473,96.6282653 L152.427295,96.5205977 L152.424117,96.3654297 L149.881998,96.4129301 L149.881998,96.4192635 Z M150.736786,101.758309 L150.774917,101.878643 L150.809872,101.989477 L150.848003,102.100312 L150.886135,102.211146 L150.924267,102.32198 L150.962399,102.432814 L151.00053,102.543649 L151.04184,102.654483 L151.083149,102.765317 L151.124459,102.872985 L151.165768,102.980652 L151.207078,103.08832 L151.251565,103.195988 L151.296052,103.303655 L151.340539,103.411323 L151.385026,103.51899 L151.429513,103.626658 L151.477178,103.734326 L151.524843,103.838826 L151.572507,103.943327 L151.620172,104.047828 L151.667837,104.152329 L151.73139,104.28533 L154.022475,103.186488 C153.9335,102.999653 153.847704,102.812818 153.765085,102.622816 L153.685644,102.435981 L153.60938,102.249146 L153.536294,102.062311 L153.463208,101.87231 L153.3933,101.682308 C153.358346,101.587307 153.32657,101.492307 153.291615,101.394139 L153.228062,101.200971 L153.196286,101.10597 L153.161332,100.998302 L150.733608,101.751975 L150.736786,101.758309 Z M153.06918,106.644517 L153.148621,106.761685 L153.212174,106.856685 L153.278905,106.951686 L153.345635,107.046687 L153.412366,107.141688 L153.479097,107.233522 L153.545827,107.325356 L153.682466,107.509024 L153.752374,107.600858 L153.822283,107.692692 L153.962099,107.873194 L154.032008,107.961861 L154.105094,108.050529 L154.178179,108.139196 L154.251265,108.227864 L154.324351,108.316531 L154.397437,108.405198 L154.470523,108.493866 L154.546787,108.579367 L154.62305,108.664867 L154.737446,108.791535 L156.628147,107.097354 L156.535995,106.992853 C156.116545,106.514682 155.735227,106.027012 155.369798,105.504507 L155.255402,105.339839 L155.185494,105.235338 L153.06918,106.64135 L153.06918,106.644517 Z M156.685344,110.682051 L156.841049,110.811886 L156.930023,110.884719 L157.018998,110.957553 L157.107972,111.030387 L157.196946,111.100055 L157.378072,111.239389 L157.470224,111.309056 L157.562376,111.378724 L157.746679,111.514891 L157.838831,111.581392 L157.930983,111.647893 L158.026312,111.714393 L158.121642,111.780894 L158.216971,111.847394 L158.312301,111.910728 L158.40763,111.974062 L158.50296,112.037396 L158.598289,112.10073 L158.693619,112.164064 L158.792126,112.227398 L158.874745,112.281231 L160.222068,110.131046 C160.05683,110.026546 159.89477,109.922045 159.73271,109.814377 L159.567472,109.700376 C159.132134,109.396374 158.71904,109.082871 158.309123,108.740868 L156.678989,110.685218 L156.685344,110.682051 Z M161.28658,113.547909 L161.458173,113.620743 L161.566213,113.665076 L161.674253,113.70941 L161.782293,113.753744 L161.890333,113.798077 L161.998374,113.842411 L162.106414,113.883578 L162.214454,113.924745 L162.322494,113.965912 L162.433711,114.007079 L162.544929,114.048246 L162.656147,114.086247 L162.767365,114.124247 L162.878582,114.162247 L162.9898,114.200248 L163.101018,114.238248 L163.212235,114.273082 L163.323453,114.307915 L163.434671,114.342749 L163.549066,114.377582 L163.663462,114.409249 L163.847765,114.463083 L164.527782,112.021562 C164.441986,111.999396 164.359367,111.974062 164.27357,111.948728 L164.079734,111.888561 L163.981226,111.856894 L163.885897,111.825227 L163.69206,111.761894 C163.596731,111.730227 163.501401,111.695393 163.402894,111.660559 L163.212235,111.590892 L163.021576,111.518058 L162.834095,111.445224 L162.646614,111.369224 L162.459133,111.290056 L162.303428,111.223556 L161.283403,113.544742 L161.28658,113.547909 Z M166.513813,115.004588 L166.694939,115.026755 L166.815689,115.039421 L166.93644,115.052088 L167.057191,115.064755 L167.177941,115.077422 L167.298692,115.086922 L167.419443,115.096422 L167.540193,115.105922 L167.660944,115.115422 L167.781695,115.124922 L167.902445,115.131255 L168.023196,115.137589 L168.143947,115.143922 L168.267875,115.150256 L168.391803,115.153422 L168.515732,115.156589 L168.63966,115.159756 L168.763588,115.162922 L168.887516,115.162922 L169.011445,115.162922 L169.135373,115.162922 L169.227525,115.162922 L169.195748,112.629568 L169.011445,112.629568 L168.903405,112.629568 L168.795365,112.629568 L168.687325,112.626401 L168.579285,112.623234 L168.471244,112.620067 L168.363204,112.616901 L168.150302,112.607401 L168.04544,112.601067 L167.940577,112.594734 L167.835715,112.588401 L167.730852,112.582067 L167.62599,112.572567 L167.416265,112.553567 L167.311403,112.544067 L167.20654,112.534567 L167.101678,112.5219 L166.996815,112.509233 L166.831578,112.487066 L166.510635,115.001421 L166.513813,115.004588 Z M171.941237,114.944421 L172.042922,114.928587 L172.160495,114.909587 L172.278068,114.890587 L172.395641,114.86842 L172.513214,114.846253 L172.630787,114.824086 L172.74836,114.801919 L172.865933,114.779752 L172.983506,114.754419 L173.101079,114.729085 L173.218652,114.703752 L173.333047,114.678418 L173.447443,114.649918 L173.561838,114.621418 L173.676233,114.592918 L173.790629,114.564417 L173.905024,114.535917 L174.01942,114.50425 L174.133815,114.472583 L174.24821,114.440916 L174.362606,114.409249 L174.477001,114.377582 L174.597752,114.342749 L173.841471,111.923395 L173.847827,111.920228 L173.749319,111.948728 L173.552305,112.005729 C173.453798,112.034229 173.355291,112.059563 173.256784,112.088063 C173.158277,112.113397 173.056592,112.13873 172.958085,112.164064 L172.757893,112.211564 L172.656208,112.233731 L172.554523,112.255898 L172.452839,112.278065 L172.351154,112.300231 L172.147784,112.341398 C172.0461,112.360399 171.944415,112.379399 171.84273,112.398399 L171.741045,112.414232 L171.63936,112.430066 L171.537676,112.445899 L171.938059,114.947587 L171.941237,114.944421 Z M177.133516,113.367407 L177.308286,113.285073 L177.413149,113.234406 L177.518011,113.183739 L177.622873,113.133072 L177.724558,113.082405 L177.826243,113.028571 L177.927928,112.974737 L178.029613,112.920903 L178.131297,112.86707 L178.232982,112.813236 L178.334667,112.756235 L178.436352,112.699235 L178.538036,112.642234 L178.636543,112.585234 L178.735051,112.528233 L178.833558,112.468066 L178.932065,112.407899 L179.030572,112.347732 L179.129079,112.287565 L179.227586,112.227398 L179.326093,112.164064 L179.504042,112.046896 L178.105876,109.931545 C178.026435,109.982212 177.946994,110.032879 177.867552,110.083546 L177.699137,110.188047 C177.527544,110.292548 177.355951,110.393882 177.18118,110.492049 C177.00641,110.590217 176.831639,110.685218 176.653691,110.777052 C176.564716,110.824552 176.475742,110.868886 176.38359,110.91322 C176.269195,110.97022 176.157977,111.024054 176.043582,111.077888 L177.133516,113.367407 Z M181.668021,110.397049 L181.791949,110.286214 L181.877745,110.210214 L181.963542,110.134213 L182.049338,110.055046 L182.131957,109.975878 L182.214576,109.896711 L182.297195,109.817544 L182.462433,109.659209 L182.545052,109.580042 L182.624493,109.497708 L182.783375,109.33304 L182.862817,109.250706 L182.942258,109.168372 L183.021699,109.086038 L183.10114,109.000537 L183.177404,108.915036 L183.253667,108.829535 L183.329931,108.744035 L183.406195,108.658534 L183.482458,108.573033 L183.580965,108.459032 L181.639422,106.821852 C181.591757,106.875685 181.544092,106.932686 181.496428,106.98652 C181.340723,107.160688 181.185018,107.331689 181.026136,107.499524 C180.933984,107.594525 180.841832,107.689526 180.746502,107.784527 C180.651173,107.876361 180.555843,107.971361 180.460514,108.063196 C180.304809,108.21203 180.145927,108.357698 179.983867,108.500199 L181.671198,110.393882 L181.668021,110.397049 Z M185.188856,106.28668 L185.255586,106.18218 L185.315962,106.084012 L185.376337,105.985845 L185.436712,105.887677 L185.497088,105.78951 L185.554285,105.691342 L185.611483,105.593175 L185.668681,105.49184 L185.725878,105.390506 L185.783076,105.289172 L185.837096,105.187838 L185.891116,105.086504 L185.945136,104.985169 L185.999156,104.883835 L186.053176,104.782501 L186.104019,104.681167 L186.154861,104.576666 L186.205703,104.472165 L186.256546,104.367664 L186.307388,104.263163 L186.35823,104.158662 L186.405895,104.054162 L186.475803,103.895827 L184.152942,102.866651 C184.063968,103.062986 183.971816,103.256155 183.876487,103.446156 C183.832,103.534824 183.784335,103.623491 183.739848,103.715325 C183.647696,103.89266 183.552366,104.066828 183.453859,104.240996 C183.355352,104.415165 183.253667,104.586166 183.148805,104.757168 C183.110673,104.817335 183.075719,104.874335 183.037587,104.934502 L185.185678,106.289847 L185.188856,106.28668 Z M187.410032,101.349805 L187.451342,101.207304 L187.483118,101.093303 L187.514895,100.979302 L187.543494,100.865301 L187.572092,100.7513 L187.600691,100.637299 L187.62929,100.523298 L187.657889,100.409297 L187.68331,100.295296 L187.708731,100.178129 L187.734152,100.060961 L187.759574,99.9437934 L187.781817,99.8266257 L187.804061,99.7094581 L187.826304,99.5922904 L187.848548,99.4751227 L187.870791,99.3579551 L187.889857,99.2407874 L187.908923,99.1236198 L187.927989,99.0064521 L187.947055,98.8892844 L187.972476,98.6992828 L185.452601,98.3636133 C185.43989,98.449114 185.427179,98.5377815 185.414469,98.6232822 L185.382692,98.8291173 L185.366804,98.9304515 C185.347738,99.0317857 185.33185,99.1331198 185.309606,99.234454 L185.268297,99.4371224 L185.246053,99.5384566 L185.22381,99.6397908 L185.201566,99.741125 L185.179323,99.8424592 L185.131658,100.041961 C185.106237,100.140128 185.080816,100.241463 185.055394,100.33963 C185.026796,100.447298 184.995019,100.558132 184.96642,100.6658 L187.41321,101.359305 L187.410032,101.349805 Z M188.144069,95.9917599 L188.144069,95.8524254 L188.140892,95.7289243 L188.137714,95.6054233 L188.134536,95.4819222 L188.131359,95.3584212 L188.125003,95.2349201 L188.118648,95.1145858 L188.112293,94.9942514 L188.105937,94.8739171 L188.096404,94.7535827 L188.086871,94.6332484 L188.077339,94.512914 L188.067806,94.3925797 L188.058273,94.2722453 L188.045562,94.151911 L188.032851,94.0315766 L188.020141,93.9112423 L188.00743,93.7909079 L187.991542,93.6705735 L187.975654,93.5502392 L187.959766,93.4299048 L187.937522,93.2810702 L185.424002,93.6642402 L185.43989,93.7814078 L185.452601,93.8859087 L185.465311,93.9904096 L185.478022,94.0949105 L185.490732,94.1994114 L185.503443,94.3039122 L185.512976,94.4084131 L185.522509,94.512914 L185.541575,94.7219158 L185.551108,94.8264167 L185.557463,94.9309176 L185.563818,95.0354184 L185.570174,95.1399193 L185.576529,95.2444202 L185.586062,95.4565887 L185.589239,95.5642563 L185.592417,95.6719238 L185.595595,95.7795914 L185.598772,95.887259 L185.598772,96.01076 L188.140892,95.9949266 L188.144069,95.9917599 Z M187.346479,90.6368812 L187.31788,90.5418804 L187.282926,90.4310461 L187.247972,90.3202118 L187.213018,90.2093775 L187.174886,90.0985433 L187.136754,89.987709 L187.098623,89.8768747 L187.060491,89.7660404 L187.022359,89.6552062 L186.98105,89.5443719 L186.93974,89.4335376 L186.898431,89.3258701 L186.857121,89.2182025 L186.815812,89.1105349 L186.771325,89.0028673 L186.726838,88.8951997 L186.682351,88.7875322 L186.637864,88.6798646 L186.593376,88.572197 L186.545712,88.4645294 L186.498047,88.3600285 L186.450382,88.2555276 L186.380474,88.1066931 L184.076679,89.1770355 C184.137054,89.3100366 184.197429,89.4430377 184.254627,89.5760388 L184.334068,89.7628738 L184.410332,89.9497087 L184.483418,90.1365436 L184.556504,90.3265452 L184.626412,90.5165468 C184.661366,90.6115476 184.693142,90.7065484 184.728097,90.8047159 L184.79165,90.9978842 L184.823426,91.092885 L184.855203,91.1910525 L184.9124,91.3842208 L187.343302,90.6463812 L187.346479,90.6368812 Z M185.071283,85.7316729 L185.004552,85.627172 L184.940999,85.5321712 L184.877446,85.4371704 L184.813893,85.3421696 L184.747162,85.2471688 L184.680432,85.152168 L184.613701,85.0571672 L184.546971,84.9653331 L184.48024,84.873499 L184.343601,84.6898308 L184.273693,84.5979966 L184.203784,84.5061625 L184.063968,84.325661 L183.99406,84.2369936 L183.920974,84.1483262 L183.847888,84.0596587 L183.774802,83.9709913 L183.701716,83.8823239 L183.62863,83.7936565 L183.555544,83.7049891 L183.434793,83.5656546 L181.521849,85.234502 C181.928588,85.700006 182.30355,86.1813434 182.659447,86.6880144 L182.773842,86.8526824 C182.83104,86.9381831 182.888238,87.0236839 182.942258,87.1091846 L185.07446,85.7285062 L185.071283,85.7316729 Z M181.499605,81.6529717 L181.356611,81.5326373 L181.267637,81.4598034 L181.178663,81.3869694 L181.089688,81.3141355 L181.000714,81.2413015 L180.91174,81.1684676 L180.822766,81.0988003 L180.64164,80.9594658 L180.549488,80.8897985 L180.457336,80.8201313 L180.273033,80.6839635 L180.180881,80.6174629 L180.088729,80.5509623 L179.9934,80.4844618 L179.89807,80.4179612 L179.802741,80.3514606 L179.707411,80.2881268 L179.612082,80.2247929 L179.516752,80.161459 L179.421423,80.0981252 L179.31656,80.0316246 L177.956527,82.1723094 L177.950171,82.1691427 C178.061389,82.2419767 178.172607,82.3148106 178.283824,82.3876446 L178.449062,82.5016455 C178.935242,82.8404817 179.396002,83.1951514 179.84405,83.581488 L181.496428,81.6561384 L181.499605,81.6529717 Z M176.930146,78.736447 L176.777619,78.6667797 L176.672756,78.6192793 L176.564716,78.5717789 L176.456676,78.5274452 L176.348636,78.4831115 L176.240596,78.4387778 L176.132556,78.3944441 L176.024516,78.3501104 L175.916476,78.3089433 L175.808436,78.2677763 L175.700396,78.2266093 L175.589178,78.1854423 L175.47796,78.1442753 L175.366743,78.106275 L175.255525,78.0682746 L175.144307,78.0302743 L175.03309,77.992274 L174.921872,77.9542737 L174.810654,77.91944 L174.699436,77.8846064 L174.588219,77.8497728 L174.381672,77.7896056 L173.673056,80.2216262 C173.765208,80.2469598 173.854182,80.27546 173.946334,80.3039602 L174.044841,80.3356272 L174.14017,80.3672941 L174.334007,80.430628 C174.429336,80.4622949 174.524666,80.4971285 174.623173,80.5319622 L174.813832,80.6016294 L175.004491,80.6744634 L175.191972,80.7472973 L175.379453,80.823298 L175.566935,80.9024653 C175.674975,80.9499657 175.783015,80.9974661 175.891055,81.0449665 L176.939679,78.736447 L176.930146,78.736447 Z M168.385448,170.909395 C175.211038,170.928395 181.826903,170.434391 188.255287,169.319715 C194.295998,168.271539 200.161938,166.675526 205.87535,164.436673 C206.139095,163.578499 206.40284,162.675992 206.679296,161.725984 C201.432997,163.784335 196.06277,165.313847 190.549549,166.38419 C186.857121,167.099863 183.097963,167.6097 179.268896,167.929536 C179.097303,168.01187 178.903466,168.059371 178.700096,168.056204 C178.51897,168.053037 178.337844,168.040371 178.156718,168.018204 C174.947293,168.255706 171.690203,168.36654 168.385448,168.35704 C165.153779,168.36654 161.969775,168.262039 158.830258,168.034037 C158.696796,168.046704 158.560157,168.056204 158.423518,168.056204 C158.248748,168.059371 158.08351,168.024537 157.934161,167.96437 C153.958922,167.644534 150.053591,167.125196 146.221346,166.38419 C141.432629,165.456349 136.751953,164.180171 132.169783,162.511324 C132.449416,163.467665 132.719516,164.37334 132.992794,165.228347 C138.372554,167.175863 143.888952,168.575542 149.557878,169.493883 C155.652609,170.485058 161.925288,170.925228 168.385448,170.909395 Z M205.249354,166.371523 C199.818751,168.407707 194.245155,169.886553 188.522209,170.877728 C182.017562,172.005071 175.312723,172.505408 168.385448,172.486408 C161.836313,172.502242 155.481016,172.055738 149.303666,171.055063 C143.952505,170.187389 138.737983,168.898545 133.641034,167.134696 C134.896206,170.564225 136.338858,172.879078 138.830135,173.705585 C142.192088,174.823428 146.974449,175.678435 151.963358,176.28644 C158.280524,177.055947 164.858258,177.413783 169.310144,177.39795 C173.76203,177.413783 180.339763,177.055947 186.656929,176.28644 C191.645838,175.678435 196.4282,174.823428 199.790153,173.705585 C202.459378,172.818911 203.927452,170.219056 205.249354,166.371523 Z M212.386353,34.9790761 C210.238262,33.1392271 201.773006,32.1132184 192.888299,31.5400469 C182.519631,30.8718746 171.648893,30.9130416 169.011445,30.9320418 L168.849385,30.9320418 C163.380651,30.8908747 130.310858,30.650206 126.40235,34.8809086 C126.364218,35.7295824 126.364218,36.5592561 126.399172,37.3730964 C126.472258,39.0926109 126.704227,40.7614584 127.056946,42.439806 L211.010431,42.439806 C211.251932,42.439806 211.490256,42.4461394 211.719047,42.4619728 C212.074943,40.7772919 212.306912,39.102111 212.383175,37.3730964 C212.41813,36.5877564 212.41813,35.7929163 212.383175,34.9790761 L212.386353,34.9790761 Z M126.529456,33.1930609 C134.591151,29.1016929 163.685705,29.3138614 168.85574,29.3518617 L169.008267,29.3518617 C171.667959,29.3328615 182.608605,29.2916945 192.986806,29.9598668 C200.946817,30.4728712 208.614484,31.4482128 212.262425,33.2690616 C212.176628,32.4298878 212.055878,31.5685472 211.89064,30.6787063 C211.058096,26.1471679 175.236459,26.4100034 169.551645,26.4511704 C169.443605,26.4511704 169.335565,26.4511704 169.227525,26.4511704 C163.542711,26.4100034 127.721074,26.1471679 126.88853,30.6787063 C126.729648,31.5400469 126.608897,32.3728873 126.526278,33.1867275 L126.529456,33.1930609 Z M163.917674,71.5987198 L163.8001,71.6240533 L163.647573,71.6557203 L163.495046,71.6905539 L163.342519,71.7253875 L163.189992,71.7602212 L163.037465,71.7950548 L162.884938,71.8330551 L162.735588,71.8710554 L162.586239,71.9090558 L162.436889,71.9502228 L162.28754,71.9913898 L162.13819,72.0325568 L161.988841,72.0737238 L161.839491,72.1180575 L161.690142,72.1623912 L161.54397,72.2067249 L161.32789,72.2732255 L162.112769,74.6830793 L162.297073,74.6260788 L162.430534,74.5849118 L162.563995,74.5437448 L162.697456,74.5057444 L162.830918,74.4677441 L162.964379,74.4297438 L163.09784,74.3917435 L163.231301,74.3569098 L163.36794,74.3220762 L163.504579,74.2872426 L163.641218,74.252409 L163.777857,74.220742 L163.914496,74.1890751 L164.051135,74.1574081 L164.187774,74.1257412 L164.324413,74.097241 L164.441986,74.0719074 L163.917674,71.5923864 L163.917674,71.5987198 Z M158.833435,73.2264003 L158.680908,73.2960675 L158.541091,73.3594014 L158.401275,73.4227353 L158.264636,73.4860691 L158.127997,73.5525697 L157.991358,73.6190702 L157.854719,73.6855708 L157.71808,73.7520714 L157.581441,73.8217386 L157.444803,73.8914059 L157.311341,73.9610731 L157.17788,74.0307404 L157.044419,74.1035744 L156.910958,74.1764083 L156.777496,74.2492423 L156.644035,74.3220762 L156.443843,74.4360772 L157.724436,76.6242624 L157.899206,76.5229282 L158.016779,76.4564276 L158.134352,76.3899271 L158.255103,76.3234265 L158.375854,76.2600926 L158.496604,76.1967588 L158.617355,76.1334249 L158.738106,76.070091 L158.858856,76.0099238 L158.979607,75.9497567 L159.103535,75.8895895 L159.227464,75.8294223 L159.351392,75.7692551 L159.47532,75.7122547 L159.599249,75.6552542 L159.723177,75.5982537 L159.862993,75.5349198 L158.830258,73.2200669 L158.833435,73.2264003 Z M154.203601,75.8990896 L154.111449,75.9655901 L153.990698,76.0542576 L153.869947,76.1460917 L153.749197,76.2379258 L153.628446,76.3297599 L153.510873,76.421594 L153.3933,76.5134281 L153.275727,76.6084289 L153.158154,76.7034297 L153.040581,76.7984305 L152.923008,76.8934313 L152.808613,76.9884321 L152.694217,77.0865996 L152.579822,77.1847671 L152.465427,77.2829346 L152.351031,77.3811021 L152.239814,77.4824363 L152.131774,77.5806038 L153.841349,79.4552864 L153.939856,79.366619 L154.041541,79.2779515 L154.143225,79.1892841 L154.24491,79.1006167 L154.346595,79.0119493 L154.44828,78.9232819 L154.553142,78.8377812 L154.658004,78.7522804 L154.762867,78.6667797 L154.867729,78.581279 L154.972592,78.4957783 L155.077454,78.4134442 L155.185494,78.3311102 L155.293534,78.2487762 L155.401574,78.1664421 L155.509614,78.0841081 L155.617654,78.0049408 L155.709806,77.9384402 L154.200423,75.8990896 L154.203601,75.8990896 Z M150.253783,79.4774532 L150.129855,79.6167878 L150.031348,79.7307887 L149.93284,79.8447897 L149.834333,79.9587907 L149.739004,80.0727916 L149.643674,80.1899593 L149.548345,80.3071269 L149.453015,80.4242946 L149.357686,80.5414623 L149.265534,80.6586299 L149.173382,80.7757976 L149.081231,80.8961319 L148.989079,81.0164663 L148.896927,81.1368006 L148.807953,81.257135 L148.718979,81.3774693 L148.58234,81.567471 L150.654167,83.0368167 L150.77174,82.8721487 L150.851181,82.7644811 L150.930622,82.6568135 L151.013241,82.5491459 L151.09586,82.4414784 L151.178479,82.3338108 L151.261098,82.2261432 L151.343717,82.1216423 L151.429513,82.0171414 L151.51531,81.9126405 L151.601106,81.8081397 L151.686903,81.7036388 L151.772699,81.5991379 L151.861673,81.4978037 L151.950648,81.3964695 L152.039622,81.2951353 L152.150839,81.1684676 L150.250605,79.4869533 L150.253783,79.4774532 Z M147.142865,83.8126567 L147.088845,83.9108242 L147.015759,84.0438253 L146.942673,84.1768264 L146.869587,84.3098275 L146.799679,84.4428287 L146.72977,84.5758298 L146.659862,84.7119976 L146.589954,84.8481654 L146.523223,84.9843333 L146.456492,85.1205011 L146.389762,85.2566689 L146.323031,85.3928367 L146.259478,85.5290045 L146.195925,85.668339 L146.132372,85.8076736 L146.068819,85.9470081 L146.008444,86.0863426 L145.957602,86.2035103 L148.293174,87.2041854 L148.337661,87.1028512 L148.391681,86.9761835 L148.448878,86.8526824 L148.506076,86.7291814 L148.563274,86.6056803 L148.620471,86.4821793 L148.680847,86.3586782 L148.741222,86.2351772 L148.801597,86.1116761 L148.861973,85.9913418 L148.922348,85.8710074 L148.985901,85.7506731 L149.049454,85.6303387 L149.113007,85.5100044 L149.17656,85.38967 L149.243291,85.2693357 L149.310021,85.152168 L149.364041,85.0540005 L147.146042,83.81899 L147.142865,83.8126567 Z M145.02655,88.7051981 L144.994774,88.809699 L144.950287,88.9585336 L144.9058,89.1073682 L144.86449,89.2562028 L144.823181,89.4050374 L144.781871,89.553872 L144.740562,89.7027066 L144.70243,89.8515412 L144.664298,90.0003758 L144.626167,90.1523771 L144.591213,90.3043783 L144.556258,90.4563796 L144.521304,90.6083809 L144.48635,90.7603822 L144.454574,90.9123835 L144.422797,91.0643848 L144.391021,91.2163861 L144.375132,91.2955534 L146.872764,91.7737241 L146.914074,91.5742224 L146.942673,91.4380546 L146.971272,91.3018868 L147.003048,91.165719 L147.034825,91.0295512 L147.066601,90.8933833 L147.098378,90.7572155 L147.133332,90.6210477 L147.168286,90.4848799 L147.20324,90.3487121 L147.238194,90.2157109 L147.276326,90.0827098 L147.314458,89.9497087 L147.352589,89.8167075 L147.390721,89.6837064 L147.432031,89.5507053 L147.463807,89.4462044 L145.032906,88.7083648 L145.02655,88.7051981 Z M144.003347,93.9334091 L143.996992,94.0189098 L143.984282,94.1772445 L143.971571,94.3355792 L143.962038,94.4939139 L143.952505,94.6522485 L143.942972,94.8105832 L143.936617,94.9720846 L143.930262,95.1335859 L143.923906,95.2950873 L143.920729,95.4565887 L143.917551,95.6180901 L143.914373,95.7795914 L143.914373,95.9410928 L143.914373,96.1025942 L143.914373,96.2640955 L143.914373,96.4255969 L143.917551,96.6029317 L146.45967,96.5395979 L146.456492,96.39393 L146.456492,96.2482621 L146.456492,96.1025942 L146.456492,95.9569263 L146.456492,95.8112584 L146.45967,95.6655905 L146.462848,95.5199226 L146.466025,95.3742547 L146.472381,95.2285868 L146.478736,95.0829188 L146.485091,94.9404176 L146.491447,94.7979164 L146.50098,94.6554152 L146.510513,94.512914 L146.520045,94.3704128 L146.532756,94.2279116 L146.539111,94.1424109 L144.006525,93.9334091 L144.003347,93.9334091 Z M144.10821,99.2534542 L144.133631,99.4402891 L144.155875,99.5954571 L144.178118,99.7506251 L144.200362,99.9057931 L144.225783,100.060961 L144.251204,100.216129 L144.276625,100.371297 L144.305224,100.526465 L144.333823,100.681633 L144.362422,100.833634 L144.391021,100.985636 L144.422797,101.137637 L144.454574,101.289638 L144.48635,101.441639 L144.521304,101.593641 L144.556258,101.745642 L144.588035,101.875476 L147.060246,101.289638 L147.034825,101.175637 L147.003048,101.039469 L146.971272,100.903302 L146.942673,100.767134 L146.914074,100.630966 L146.885475,100.494798 L146.860054,100.355464 L146.834633,100.216129 L146.809212,100.076795 L146.78379,99.93746 L146.761547,99.7981255 L146.739303,99.658791 L146.71706,99.5194565 L146.694816,99.3801219 L146.67575,99.2407874 L146.656684,99.1014529 L146.634441,98.9304515 L144.111388,99.2502875 L144.10821,99.2534542 Z M145.341138,104.443665 L145.382447,104.557666 L145.436467,104.700167 L145.490487,104.842668 L145.544507,104.985169 L145.598527,105.127671 L145.655725,105.270172 L145.712923,105.412673 L145.77012,105.555174 L145.827318,105.697675 L145.887693,105.83701 L145.948069,105.976345 L146.008444,106.115679 L146.068819,106.255014 L146.132372,106.394348 L146.195925,106.533683 L146.259478,106.673017 L146.323031,106.809185 L146.367518,106.904186 L148.658603,105.805343 L148.620471,105.726176 L148.563274,105.602675 L148.506076,105.479174 L148.448878,105.355673 L148.391681,105.232172 L148.337661,105.105504 L148.283641,104.978836 L148.229621,104.852168 L148.175601,104.725501 L148.124758,104.598833 L148.073916,104.472165 L148.023073,104.345497 L147.972231,104.21883 L147.921389,104.092162 L147.873724,103.962327 L147.826059,103.832493 L147.778394,103.702659 L147.737085,103.588658 L145.344315,104.443665 L145.341138,104.443665 Z M147.651288,109.247539 L147.702131,109.33304 L147.781572,109.459707 L147.864191,109.586375 L147.94681,109.713043 L148.029429,109.839711 L148.112048,109.966378 L148.197844,110.089879 L148.283641,110.21338 L148.369437,110.336881 L148.455234,110.460383 L148.54103,110.583884 L148.630004,110.707385 L148.718979,110.827719 L148.807953,110.948053 L148.896927,111.068388 L148.989079,111.188722 L149.081231,111.309056 L149.182915,111.438891 L151.181656,109.874544 L151.181656,109.877711 L151.099038,109.770043 L151.016419,109.662376 L150.9338,109.554708 L150.854359,109.447041 L150.774917,109.339373 L150.695476,109.228539 L150.616035,109.117704 L150.536594,109.00687 L150.46033,108.896036 L150.384067,108.785202 L150.307803,108.674367 L150.231539,108.563533 L150.155276,108.449532 L150.08219,108.335531 L150.009104,108.22153 L149.936018,108.107529 L149.862932,107.993528 L149.81209,107.908028 L147.654466,109.250706 L147.651288,109.247539 Z M150.927445,113.449741 L151.051373,113.576409 L151.156235,113.684077 L151.261098,113.791744 L151.369138,113.896245 L151.477178,114.000746 L151.585218,114.105247 L151.693258,114.209748 L151.801298,114.314249 L151.912516,114.415583 L152.023733,114.516917 L152.134951,114.618251 L152.246169,114.719585 L152.357387,114.820919 L152.471782,114.919087 L152.586177,115.017254 L152.700573,115.115422 L152.814968,115.213589 L152.884876,115.273757 L154.51501,113.329407 L154.35295,113.193239 L154.251265,113.104572 L154.149581,113.015904 L154.047896,112.927237 L153.946211,112.838569 L153.844526,112.746735 L153.746019,112.654901 L153.647512,112.563067 L153.549005,112.471233 L153.450498,112.379399 L153.351991,112.287565 L153.253484,112.192564 L153.158154,112.097563 L153.062825,112.002562 L152.967495,111.907561 L152.872166,111.812561 L152.75777,111.695393 L150.927445,113.456075 L150.927445,113.449741 Z M155.023434,116.876104 L155.102875,116.929937 L155.229981,117.012271 L155.357087,117.094605 L155.484193,117.176939 L155.611299,117.259273 L155.738405,117.338441 L155.865511,117.417608 L155.995795,117.496776 L156.126078,117.575943 L156.256362,117.651943 L156.386645,117.727944 L156.516929,117.803945 L156.647213,117.879945 L156.780674,117.952779 L156.914135,118.025613 L157.047596,118.098447 L157.181058,118.171281 L157.324052,118.247282 L158.496604,115.998929 L158.499782,116.002096 L158.379031,115.938762 L158.258281,115.875428 L158.13753,115.808928 L158.019957,115.742427 L157.902384,115.675927 L157.784811,115.609426 L157.667238,115.542926 L157.549665,115.473258 L157.432092,115.403591 L157.314519,115.333924 L157.196946,115.264257 L157.082551,115.191423 L156.968155,115.118589 L156.85376,115.045755 L156.739365,114.972921 L156.624969,114.900087 L156.510574,114.824086 L156.431133,114.770252 L155.020256,116.87927 L155.023434,116.876104 Z M159.751776,119.358791 L159.951968,119.437959 L160.094962,119.491792 L160.237956,119.545626 L160.38095,119.59946 L160.523944,119.653294 L160.670116,119.703961 L160.816288,119.754628 L160.96246,119.805295 L161.108632,119.852795 L161.254804,119.900296 L161.400976,119.947796 L161.547147,119.995297 L161.693319,120.03963 L161.842669,120.083964 L161.992018,120.128298 L162.141368,120.169465 L162.284362,120.210632 L162.964379,117.769111 L162.834095,117.734278 L162.700634,117.696277 L162.567173,117.658277 L162.433711,117.61711 L162.30025,117.575943 L162.166789,117.534776 L162.033328,117.493609 L161.903044,117.449275 L161.77276,117.404941 L161.642477,117.360608 L161.512193,117.316274 L161.38191,117.268774 L161.251626,117.221273 L161.121342,117.173773 L160.991059,117.126272 L160.863953,117.075605 L160.679649,117.002771 L159.748598,119.358791 L159.751776,119.358791 Z M164.9091,120.783803 L165.039384,120.80597 L165.195088,120.831304 L165.350793,120.853471 L165.506498,120.875637 L165.662203,120.897804 L165.817908,120.916804 L165.973612,120.935805 L166.132495,120.954805 L166.291377,120.973805 L166.45026,120.989638 L166.609142,121.005472 L166.768025,121.021305 L166.926907,121.033972 L167.08579,121.046639 L167.244672,121.059306 L167.403554,121.068806 L167.562437,121.078306 L167.708609,118.548118 L167.565615,118.538618 L167.42262,118.529118 L167.279626,118.519618 L167.136632,118.506951 L166.993638,118.494284 L166.850643,118.481617 L166.707649,118.46895 L166.564655,118.453117 L166.421661,118.437283 L166.278667,118.42145 L166.13885,118.40245 L165.999034,118.38345 L165.859217,118.36445 L165.7194,118.345449 L165.579584,118.323283 L165.439767,118.301116 L165.309484,118.278949 L164.9091,120.780637 L164.9091,120.783803 Z M170.241195,121.087806 L170.466808,121.075139 L170.62569,121.065639 L170.784573,121.056139 L170.943455,121.043472 L171.102338,121.030805 L171.26122,121.018139 L171.420103,121.002305 L171.578985,120.986472 L171.737868,120.970638 L171.89675,120.951638 L172.055632,120.932638 L172.211337,120.913638 L172.367042,120.894638 L172.522747,120.872471 L172.678452,120.850304 L172.900887,120.81547 L172.500503,118.313782 L172.309844,118.342283 L172.170028,118.361283 L172.030211,118.380283 L171.890395,118.399283 L171.750578,118.418283 L171.607584,118.434117 L171.46459,118.44995 L171.321596,118.465784 L171.178601,118.47845 L171.035607,118.491117 L170.892613,118.503784 L170.749619,118.516451 L170.606625,118.525951 L170.46363,118.535451 L170.320636,118.544951 L170.110911,118.554451 L170.241195,121.084639 L170.241195,121.087806 Z M175.522448,120.267632 L175.738528,120.210632 L175.887877,120.169465 L176.037227,120.128298 L176.186576,120.083964 L176.335926,120.03963 L176.482097,119.995297 L176.628269,119.947796 L176.774441,119.900296 L176.920613,119.852795 L177.066785,119.805295 L177.212957,119.754628 L177.359129,119.703961 L177.5053,119.653294 L177.648295,119.59946 L177.791289,119.545626 L177.934283,119.491792 L178.064567,119.441125 L177.146226,117.078772 L177.031831,117.123106 L176.901547,117.170606 L176.771264,117.218106 L176.64098,117.265607 L176.510696,117.313107 L176.380413,117.357441 L176.250129,117.401775 L176.119846,117.446108 L175.989562,117.490442 L175.856101,117.531609 L175.722639,117.572776 L175.589178,117.613943 L175.455717,117.65511 L175.322256,117.69311 L175.188794,117.731111 L175.055333,117.769111 L174.855141,117.822945 L175.51927,120.267632 L175.522448,120.267632 Z M180.511356,118.345449 L180.581265,118.310616 L180.714726,118.240948 L180.848187,118.171281 L180.981648,118.098447 L181.11511,118.025613 L181.248571,117.952779 L181.382032,117.879945 L181.512316,117.803945 L181.642599,117.727944 L181.772883,117.651943 L181.903167,117.575943 L182.03345,117.496776 L182.163734,117.417608 L182.29084,117.338441 L182.417946,117.259273 L182.545052,117.176939 L182.672158,117.094605 L182.81833,116.999605 L181.407453,114.890587 L181.286703,114.969754 L181.172307,115.042588 L181.057912,115.115422 L180.943517,115.188256 L180.829121,115.26109 L180.711548,115.330757 L180.593975,115.400424 L180.476402,115.470092 L180.358829,115.539759 L180.241256,115.606259 L180.123683,115.67276 L180.00611,115.739261 L179.888537,115.805761 L179.767787,115.872262 L179.647036,115.935596 L179.526285,115.998929 L179.335626,116.097097 L180.508179,118.345449 L180.511356,118.345449 Z M184.969598,115.416258 L185.099881,115.30859 L185.214277,115.213589 L185.328672,115.115422 L185.443068,115.017254 L185.557463,114.919087 L185.671858,114.820919 L185.783076,114.719585 L185.894294,114.618251 L186.005511,114.516917 L186.116729,114.415583 L186.227947,114.314249 L186.335987,114.209748 L186.444027,114.105247 L186.552067,114.000746 L186.660107,113.896245 L186.768147,113.791744 L186.87301,113.684077 L186.942918,113.614409 L185.125303,111.844228 L184.969598,111.999396 L184.874268,112.094396 L184.778939,112.189397 L184.680432,112.284398 L184.581925,112.376232 L184.483418,112.468066 L184.38491,112.5599 L184.286403,112.651734 L184.187896,112.743569 L184.086211,112.835403 L183.984527,112.92407 L183.882842,113.012737 L183.781157,113.101405 L183.679472,113.190072 L183.577788,113.27874 L183.472925,113.36424 L183.355352,113.462408 L184.972776,115.416258 L184.969598,115.416258 Z M188.712868,111.609892 L188.855863,111.426224 L188.948014,111.30589 L189.040166,111.185555 L189.132318,111.065221 L189.221292,110.944887 L189.310266,110.824552 L189.399241,110.704218 L189.488215,110.580717 L189.574011,110.457216 L189.659808,110.333715 L189.745604,110.210214 L189.831401,110.086713 L189.917197,109.963212 L189.999816,109.836544 L190.082435,109.709876 L190.165054,109.583208 L190.263561,109.431207 L188.105937,108.088529 L188.026496,108.215197 L187.95341,108.329198 L187.880324,108.443199 L187.804061,108.5572 L187.727797,108.668034 L187.651534,108.778868 L187.57527,108.889703 L187.499006,109.000537 L187.419565,109.111371 L187.340124,109.222205 L187.260683,109.33304 L187.181242,109.440707 L187.1018,109.548375 L187.019181,109.656042 L186.936563,109.76371 L186.853944,109.871378 L186.717305,110.042379 L188.716046,111.606726 L188.712868,111.609892 Z M191.563219,107.106854 L191.642661,106.945353 L191.709391,106.809185 L191.772944,106.673017 L191.836497,106.533683 L191.90005,106.394348 L191.963603,106.255014 L192.023979,106.115679 L192.084354,105.976345 L192.144729,105.83701 L192.205105,105.697675 L192.262302,105.555174 L192.3195,105.412673 L192.376698,105.270172 L192.433895,105.127671 L192.487915,104.985169 L192.541935,104.842668 L192.615021,104.6495 L190.222252,103.794493 L190.161876,103.959161 L190.114212,104.088995 L190.063369,104.215663 L190.012527,104.342331 L189.961684,104.468998 L189.910842,104.595666 L189.86,104.722334 L189.80598,104.849002 L189.75196,104.975669 L189.69794,105.102337 L189.643919,105.229005 L189.586722,105.352506 L189.529524,105.476007 L189.472326,105.599508 L189.415129,105.723009 L189.354753,105.84651 L189.281668,105.995345 L191.566397,107.110021 L191.563219,107.106854 Z M193.390368,102.097145 L193.438032,101.897643 L193.472986,101.745642 L193.507941,101.593641 L193.542895,101.441639 L193.574671,101.289638 L193.606448,101.137637 L193.638224,100.985636 L193.666823,100.833634 L193.695422,100.681633 L193.724021,100.526465 L193.75262,100.371297 L193.778041,100.216129 L193.803462,100.060961 L193.828883,99.9057931 L193.851127,99.7506251 L193.87337,99.5954571 L193.889258,99.4782894 L191.369383,99.1426199 L191.356672,99.2439541 L191.337606,99.3832886 L191.315363,99.5226231 L191.293119,99.6619577 L191.270876,99.8012922 L191.248632,99.9406267 L191.223211,100.079961 L191.19779,100.219296 L191.172369,100.35863 L191.146947,100.497965 L191.118349,100.634133 L191.08975,100.7703 L191.061151,100.906468 L191.029374,101.042636 L190.997598,101.178804 L190.965821,101.314972 L190.921334,101.49864 L193.390368,102.100312 L193.390368,102.097145 Z M194.108516,96.8182669 L194.114872,96.5807649 L194.118049,96.4192635 L194.118049,96.2577621 L194.118049,96.0962608 L194.118049,95.9347594 L194.118049,95.773258 L194.114872,95.6117567 L194.111694,95.4502553 L194.108516,95.2887539 L194.102161,95.1272526 L194.095806,94.9657512 L194.08945,94.8042498 L194.079917,94.6459151 L194.070384,94.4875805 L194.060852,94.3292458 L194.048141,94.1455776 L191.515555,94.3545793 L191.528265,94.5065806 L191.537798,94.6490818 L191.547331,94.791583 L191.553687,94.9340843 L191.560042,95.0765855 L191.566397,95.2222534 L191.572752,95.3679213 L191.57593,95.5135892 L191.579108,95.6592571 L191.582285,95.804925 L191.582285,95.9505929 L191.582285,96.0962608 L191.582285,96.2419287 L191.582285,96.3875966 L191.579108,96.5332645 L191.572752,96.754933 L194.114872,96.8182669 L194.108516,96.8182669 Z M193.695422,91.5045552 L193.670001,91.362054 L193.641402,91.2100527 L193.609625,91.0580514 L193.577849,90.9060501 L193.546072,90.7540488 L193.511118,90.6020475 L193.476164,90.4500462 L193.44121,90.298045 L193.406256,90.1460437 L193.368124,89.9940424 L193.329992,89.8452078 L193.29186,89.6963732 L193.250551,89.5475386 L193.209242,89.398704 L193.167932,89.2498694 L193.126623,89.1010348 L193.069425,88.9141999 L190.638524,89.6520395 L190.686188,89.8103742 L190.72432,89.9433753 L190.762452,90.0763764 L190.800584,90.2093775 L190.835538,90.3423787 L190.870492,90.4785465 L190.905446,90.6147143 L190.9404,90.7508821 L190.972177,90.88705 L191.003953,91.0232178 L191.03573,91.1593856 L191.067506,91.2955534 L191.096105,91.4317212 L191.124704,91.5678891 L191.153303,91.7040569 L191.178724,91.8433914 L191.204145,91.9858926 L193.701777,91.5077219 L193.695422,91.5045552 Z M192.163795,86.4061786 L192.084354,86.2193437 L192.023979,86.0800092 L191.963603,85.9406747 L191.90005,85.8013402 L191.836497,85.6620057 L191.772944,85.5226711 L191.709391,85.3865033 L191.642661,85.2503355 L191.57593,85.1141677 L191.509199,84.9779999 L191.442469,84.841832 L191.372561,84.7056642 L191.302652,84.5694964 L191.232744,84.4364953 L191.162836,84.3034941 L191.08975,84.170493 L190.997598,83.9994916 L188.779599,85.234502 L188.85904,85.3770032 L188.922593,85.4973376 L188.986146,85.617672 L189.049699,85.7380063 L189.113252,85.8583407 L189.173627,85.978675 L189.234003,86.0990094 L189.294378,86.2225104 L189.354753,86.3460115 L189.415129,86.4695125 L189.472326,86.5930136 L189.529524,86.7165146 L189.586722,86.8400156 L189.643919,86.9635167 L189.69794,87.0901844 L189.75196,87.2168522 L189.825045,87.3878536 L192.166973,86.3998452 L192.163795,86.4061786 Z M189.485037,81.6149714 L189.396063,81.4914703 L189.307089,81.371136 L189.218115,81.2508016 L189.12914,81.1304673 L189.036989,81.0101329 L188.944837,80.8897985 L188.852685,80.7694642 L188.760533,80.6522965 L188.668381,80.5351289 L188.573052,80.4179612 L188.477722,80.3007936 L188.382393,80.1836259 L188.287063,80.0664582 L188.191734,79.9524573 L188.093227,79.8384563 L187.99472,79.7244553 L187.924811,79.645288 L186.011867,81.3141355 L186.072242,81.3838027 L186.161216,81.4851369 L186.25019,81.5864711 L186.335987,81.690972 L186.421783,81.7954729 L186.50758,81.8999738 L186.593376,82.0044747 L186.679173,82.1089755 L186.761792,82.2134764 L186.844411,82.321144 L186.92703,82.4288116 L187.009648,82.5364792 L187.092267,82.6441467 L187.171709,82.7518143 L187.25115,82.8594819 L187.330591,82.9703162 L187.410032,83.0811505 L187.492651,83.1983181 L189.574011,81.7416391 L189.485037,81.6149714 Z M186.059531,77.7326051 L185.894294,77.5806038 L185.783076,77.4792696 L185.671858,77.3779354 L185.557463,77.2797679 L185.443068,77.1816004 L185.328672,77.0834329 L185.214277,76.9852654 L185.099881,76.8902646 L184.982308,76.7952638 L184.864735,76.700263 L184.747162,76.6052622 L184.629589,76.5102614 L184.512016,76.4184273 L184.394443,76.3265932 L184.273693,76.2347591 L184.152942,76.142925 L183.997237,76.028924 L182.487854,78.0682746 L182.618138,78.1664421 L182.726178,78.2487762 L182.834218,78.3311102 L182.942258,78.4134442 L183.04712,78.4957783 L183.151983,78.581279 L183.256845,78.6667797 L183.361707,78.7522804 L183.46657,78.8377812 L183.571432,78.9232819 L183.673117,79.0119493 L183.774802,79.1006167 L183.876487,79.1892841 L183.978171,79.2779515 L184.079856,79.366619 L184.181541,79.4584531 L184.337246,79.6009543 L186.059531,77.7357718 L186.059531,77.7326051 Z M181.776061,74.5532448 L181.639422,74.4740775 L181.509138,74.3980769 L181.378855,74.3220762 L181.245393,74.2492423 L181.111932,74.1764083 L180.978471,74.1035744 L180.84501,74.0307404 L180.711548,73.9610731 L180.578087,73.8914059 L180.441448,73.8217386 L180.304809,73.7520714 L180.16817,73.6855708 L180.031531,73.6190702 L179.894892,73.5525697 L179.758254,73.4860691 L179.621615,73.4227353 L179.481798,73.3594014 L179.399179,73.3214011 L178.350555,75.6299206 L178.544392,75.718588 L178.66832,75.7755885 L178.792248,75.8357557 L178.916177,75.8959229 L179.040105,75.9560901 L179.160856,76.0162572 L179.281606,76.0764244 L179.402357,76.1397583 L179.523108,76.2030922 L179.643858,76.266426 L179.764609,76.3297599 L179.88536,76.3962605 L180.002933,76.462761 L180.120506,76.5292616 L180.238079,76.5957621 L180.355652,76.6622627 L180.47958,76.7350967 L181.772883,74.5532448 L181.776061,74.5532448 Z M176.901547,72.3428928 L176.771264,72.2985591 L176.625092,72.2510587 L176.47892,72.2035583 L176.332748,72.1592245 L176.183398,72.1148908 L176.034049,72.0705571 L175.884699,72.0293901 L175.73535,71.9882231 L175.586,71.9470561 L175.436651,71.9058891 L175.287301,71.8678887 L175.137952,71.8298884 L174.985425,71.7918881 L174.832898,71.7570545 L174.680371,71.7222208 L174.527843,71.6873872 L174.321296,71.6430535 L173.796984,74.1225745 L173.971755,74.1605748 L174.108394,74.1922418 L174.245033,74.2239087 L174.381672,74.2555756 L174.51831,74.2904093 L174.654949,74.3252429 L174.791588,74.3600765 L174.92505,74.3949102 L175.058511,74.4329105 L175.191972,74.4709108 L175.325433,74.5089111 L175.458895,74.5469114 L175.592356,74.5880785 L175.725817,74.6292455 L175.859278,74.6704125 L175.99274,74.7115795 L176.123023,74.7559132 L176.907902,72.3460595 L176.901547,72.3428928 Z M166.253245,160.506807 C166.148383,160.750642 166.014922,161.057811 165.903704,161.30798 L165.728933,161.71015 C165.255464,162.853327 164.254504,164.452507 162.992978,165.735018 C164.775639,165.804685 166.574188,165.836352 168.388626,165.833185 C170.317459,165.839519 172.230403,165.801518 174.12746,165.722351 C172.951729,164.528507 172.011145,163.071828 171.509077,161.963486 C171.467767,161.874818 171.254865,161.364981 171.057851,160.889977 C171.003831,160.763309 170.952988,160.639808 170.908501,160.528974 C170.174464,160.699975 169.411829,160.791809 168.626949,160.791809 C167.810293,160.791809 167.015881,160.693642 166.256423,160.506807 L166.253245,160.506807 Z M158.763527,165.494349 C159.449899,165.361348 160.168048,164.902177 160.828999,164.303672 C162.020617,163.22383 162.967556,161.757651 163.387006,160.750642 C163.418783,160.671475 163.491869,160.50364 163.58402,160.297805 C163.682527,160.07297 163.803278,159.797467 163.892252,159.594799 C163.046998,159.138795 162.274829,158.562457 161.601167,157.887951 C159.802618,156.095603 158.690441,153.619248 158.690441,150.886392 C158.690441,148.150369 159.802618,145.677181 161.601167,143.884833 C163.399717,142.092484 165.884638,140.984141 168.626949,140.984141 C171.372438,140.984141 173.854182,142.092484 175.652731,143.884833 C177.45128,145.677181 178.563458,148.153535 178.563458,150.886392 C178.563458,153.622415 177.45128,156.095603 175.652731,157.887951 C174.956826,158.581457 174.159236,159.173629 173.282205,159.635966 C173.317159,159.724633 173.358469,159.822801 173.402956,159.927302 C173.565016,160.319972 173.765208,160.788642 173.825583,160.921644 C174.292697,161.950819 175.226926,163.350498 176.37088,164.363839 C176.984166,164.905344 177.638762,165.323348 178.274292,165.472182 C182.281307,165.161846 186.212059,164.645675 190.07608,163.895169 C197.041486,162.546157 203.774924,160.437139 210.301815,157.428781 C213.813117,155.8106 215.560824,154.18292 216.412434,152.105569 C217.295821,149.945884 217.311709,147.121193 217.311709,143.311661 L217.311709,67.4851849 C217.311709,66.3261751 217.349841,64.8093289 217.387973,63.2576491 C217.422927,61.8358037 217.457881,60.3822914 217.457881,58.6659435 C217.457881,51.6168838 216.663469,44.960494 211.016786,44.960494 L125.763642,44.960494 C120.11696,44.960494 119.322548,51.6168838 119.322548,58.6659435 C119.322548,60.3822914 119.357502,61.8358037 119.392456,63.2576491 C119.430588,64.8093289 119.46872,66.3230084 119.46872,67.4851849 L119.46872,143.311661 C119.46872,147.121193 119.484608,149.945884 120.367995,152.105569 C121.216427,154.179753 122.967311,155.8106 126.478613,157.428781 C133.005504,160.437139 139.738943,162.542991 146.704349,163.895169 C150.650989,164.661509 154.670715,165.184013 158.766705,165.491182 L158.763527,165.494349 Z M173.854182,145.674014 C172.516392,144.340836 170.667,143.514329 168.623772,143.514329 C166.580543,143.514329 164.731152,144.33767 163.393361,145.674014 C162.055571,147.007192 161.226205,148.850208 161.226205,150.886392 C161.226205,152.922576 162.052394,154.765591 163.393361,156.098769 C164.731152,157.431947 166.580543,158.258454 168.623772,158.258454 C170.667,158.258454 172.516392,157.435114 173.854182,156.098769 C175.191972,154.765591 176.021338,152.922576 176.021338,150.886392 C176.021338,148.850208 175.19515,147.007192 173.854182,145.674014 Z" id="Shape" fill="#680966" fill-rule="nonzero"></path>
            <g id="Group-2" transform="translate(37.535545, 0.000000)">
                <g id="Group-3">
                    <ellipse id="Oval" fill="#FFFFFF" cx="52.1327014" cy="52" rx="52.1327014" ry="52"></ellipse>
                    <path d="M26.1840697,94.2854297 L33.4126013,98.9183023 L33.6787127,50.8410777 C33.6818875,50.267497 34.1477613,49.8041948 34.7213507,49.8041948 L69.8617876,49.8041948 C70.4360777,49.8041948 70.9022445,50.2685876 70.9044341,50.8428735 L71.0854609,98.3229639 L71.0854609,98.3229639 L79.7630332,93.93076 L78.4582773,49.257524 C78.3128526,44.2783625 74.3023225,40.2804761 69.3227266,40.1507744 L34.9530413,39.2555598 C29.7722211,39.1206169 25.4629437,43.2111086 25.3280008,48.3919288 C25.3243439,48.5323262 25.3238394,48.6727881 25.3264876,48.8132082 L26.1840697,94.2854297 L26.1840697,94.2854297 Z" id="Path-19" fill="#E0EBD2"></path>
                    <path d="M58.9998731,71.6049972 C60.7736658,73.3759895 61.8090616,75.925934 61.8090616,78.4956381 C61.8090616,81.0653423 60.7736658,83.6152867 58.9998731,85.3862791 L58.7294691,85.6487628 C57.5542935,86.7570254 56.3326093,87.4866 54.986948,87.8563873 L54.7291076,87.9202293 L54.6922248,87.9211127 L54.6394174,87.9315874 L54.2827889,88.0305817 L54.1633108,88.0536981 C54.1469547,88.0555342 54.1321139,88.0564136 54.1183936,88.0564136 L53.7610901,88.1143318 C53.53048,88.1462163 53.3068824,88.1654229 53.0412647,88.1766158 L52.605194,88.1879779 C52.52522,88.1890642 52.4410875,88.1897954 52.3520303,88.1902444 L51.4259362,88.1908239 C51.3401306,88.1908239 51.2567804,88.1890499 51.1729333,88.1851911 L50.9169489,88.16705 C50.8730523,88.1628806 50.8282934,88.1581123 50.7823032,88.1527063 L50.488634,88.1123075 L50.1476999,88.0547401 L49.508929,87.9321203 C47.8004413,87.3592832 46.3604355,86.5466518 45.1982279,85.3862791 C43.4244353,83.6152867 42.3890394,81.0653423 42.3890394,78.4956381 C42.3890394,75.925934 43.4244353,73.3759895 45.1982279,71.6049972 C45.5330878,71.270666 46.2797092,71.270666 46.6145691,71.6049972 C46.9497077,71.9396067 46.9497077,72.6859183 46.6145691,73.0205279 C45.1626743,74.4701305 44.3080885,76.4868717 44.3080885,78.4956381 C44.3080885,80.5044046 45.1626743,82.5211458 46.6145691,83.9707484 C47.24538,84.6005634 47.9852321,85.1192618 48.8317481,85.5263881 L49.2010642,85.6940386 C49.9992057,86.093484 50.9744325,86.2737964 52.0990505,86.2737964 C53.2236685,86.2737964 54.1988954,86.093484 55.0248332,85.6811671 C55.9992573,85.2651936 56.8626052,84.690537 57.5835319,83.9707484 C59.0354267,82.5211458 59.8900125,80.5044046 59.8900125,78.4956381 C59.8900125,76.4868717 59.0354267,74.4701305 57.5835319,73.0205279 C57.2483933,72.6859183 57.2483933,71.9396067 57.5835319,71.6049972 C57.9183918,71.270666 58.6650132,71.270666 58.9998731,71.6049972 Z" id="Path" stroke="#7FB439" stroke-width="0.5" fill="#7FB439" fill-rule="nonzero"></path>
                    <path d="M52.0990505,66.3810662 C52.6187537,66.3810662 53.0585751,66.8201933 53.0585751,67.33958 L53.0585751,76.479483 C53.0585751,76.9988697 52.6187537,77.4379968 52.0990505,77.4379968 C51.5793474,77.4379968 51.139526,76.9988697 51.139526,76.479483 L51.139526,67.33958 C51.139526,66.8201933 51.5793474,66.3810662 52.0990505,66.3810662 Z" id="Path" stroke="#7FB439" stroke-width="0.5" fill="#7FB439" fill-rule="nonzero"></path>
                </g>
                <path d="M52.1327014,0 C80.9247974,0 104.265403,23.281193 104.265403,52 C104.265403,80.718807 80.9247974,104 52.1327014,104 C23.3406055,104 0,80.718807 0,52 C0,23.281193 23.3406055,0 52.1327014,0 Z M67.7725118,49.92 L36.5405634,49.92 C35.4412288,49.92 34.5405808,50.7685129 34.460975,51.8447672 L34.4552553,52 L34.4551936,96.485751 C39.925478,98.650282 45.8897984,99.84 52.1327014,99.84 C58.3938463,99.84 64.3747781,98.6433191 69.8581494,96.4667516 L69.8578199,52 C69.8578199,50.9034637 69.0071416,50.0051083 67.9281408,49.9257052 L67.7725118,49.92 Z M70.9004739,42.12 L33.8006731,42.12 C30.7107896,42.12 28.1916749,44.5575312 28.0706294,47.6099446 L28.0660759,47.84 L28.0664677,93.3905882 C29.4577895,94.197187 30.8935013,94.9359909 32.3690564,95.6024648 L32.3699472,52 C32.3699472,49.7721168 34.1257437,47.953278 36.3324075,47.8450911 L36.5405634,47.84 L67.7725118,47.84 C70.0060805,47.84 71.8295609,49.5913272 71.9380239,51.792374 L71.943128,52 L71.9443099,95.580769 C73.5578274,94.8498387 75.1235878,94.0323781 76.6356357,93.1343274 L76.6350711,47.84 C76.6350711,44.7579817 74.1913194,42.2452793 71.1311165,42.1245419 L70.9004739,42.12 Z M52.1327014,4.16 C25.6439731,4.16 4.17061611,25.5786976 4.17061611,52 C4.17061611,68.3493799 12.3929303,82.7832237 24.9379785,91.4118774 L24.9381138,47.84 C24.9381138,43.04657 28.7630411,39.1442257 33.5346292,39.0039069 L33.8006731,39 L70.9004739,39 C75.7061365,39 79.6184394,42.8151911 79.7591163,47.5746333 L79.7630332,47.84 L79.7640857,91.1079639 C92.0629269,82.4466721 100.094787,68.1589192 100.094787,52 C100.094787,25.5786976 78.6214297,4.16 52.1327014,4.16 Z M52.0990505,28.6117609 C53.0043584,28.6117609 53.8879175,28.7424519 54.626506,28.9882594 C56.26245,29.3981812 57.6217207,30.1872072 58.7117725,31.3964638 C59.065766,31.7509153 59.065766,32.4972269 58.7306274,32.8318364 C58.5751568,32.9870615 58.3120524,33.0825848 58.0224568,33.0825848 C57.7328612,33.0825848 57.4697567,32.9870615 57.3142862,32.8318364 C56.5707081,32.0894322 55.9221002,31.6056608 55.2001187,31.3167475 L54.9565098,31.2275726 C53.1081579,30.5172147 51.0899431,30.5172147 49.2192897,31.235561 C48.1848659,31.7492489 47.5346107,32.182068 46.8838148,32.8318364 C46.548955,33.1661676 45.8023335,33.1661676 45.4674737,32.8318364 C45.132335,32.4972269 45.132335,31.7509153 45.4674737,31.4163058 C46.6748946,30.210791 48.0810809,29.3618811 49.5331488,28.9994372 C50.3101835,28.7424519 51.1937426,28.6117609 52.0990505,28.6117609 Z M54.7121613,22.5572374 C57.9324051,23.0931386 60.8956587,24.5724264 63.173182,26.8463542 C63.5083207,27.1809638 63.5083207,27.9272753 63.173182,28.2618849 C63.0177115,28.41711 62.7546071,28.5126333 62.4650115,28.5126333 C62.1754159,28.5126333 61.9123114,28.41711 61.7568409,28.2618849 C59.7934702,26.4411467 57.4223936,25.1857426 54.9047041,24.6271393 C53.0815382,24.2070553 51.1165629,24.2070553 49.2892599,24.6280749 C46.7852445,25.0437486 44.3991113,26.3071246 42.4412601,28.2618849 C42.1064003,28.5962161 41.3597788,28.5962161 41.024919,28.2618849 C40.6897804,27.9272753 40.6897804,27.1809638 41.024919,26.8463542 C43.2034196,24.6712928 46.009318,23.2232745 49.0730364,22.6315736 L49.4859397,22.5572374 C51.1834492,22.2964944 53.0146518,22.2964944 54.7121613,22.5572374 Z M63.372545,19.3942243 L63.8004052,19.6592599 C65.0041926,20.3806022 66.2755278,21.3570084 67.6380109,22.5661926 C67.9508754,22.8798329 67.9508754,23.6261445 67.6157367,23.960754 C67.4602662,24.1159791 67.1971618,24.2115024 66.9075662,24.2115024 C66.6179706,24.2115024 66.3548661,24.1159791 66.1993956,23.960754 C63.4338362,21.3373845 60.1206192,19.542626 56.5243155,18.7140199 C55.0993895,18.3255971 53.731727,18.1630372 52.0990505,18.1630372 C51.6422701,18.1630372 51.1974277,18.1923672 50.693008,18.2504776 L50.3775394,18.2893672 L49.3327963,18.4370941 C45.141382,18.9950441 41.1450585,20.9537785 38.1333283,23.960754 C37.8002318,24.3713741 36.9613698,24.3391611 36.5823643,23.960754 C36.2472257,23.6261445 36.2472257,22.8798329 36.5823643,22.5452234 C40.1099409,19.1491172 44.3952636,17.0499068 48.9853187,16.4357822 L49.4612204,16.3775574 C54.3994368,15.8585658 59.2137481,16.8834293 63.372545,19.3942243 Z" id="Combined-Shape" fill="#7FB439" fill-rule="nonzero"></path>
            </g>
            <path d="M166.256423,160.506807 C167.015881,160.693642 167.810293,160.791809 168.626949,160.791809 C169.411829,160.791809 170.174464,160.699975 170.908501,160.528974 C170.952988,160.639808 171.003831,160.763309 171.057851,160.889977 L171.057851,160.889977 L171.165762,161.149784 C171.255123,161.3646 171.340724,161.569483 171.404957,161.721608 L171.470654,161.876094 C171.488383,161.91732 171.501566,161.947364 171.509077,161.963486 C172.011145,163.071828 172.951729,164.528507 174.12746,165.722351 C172.230403,165.801518 170.317459,165.839519 168.388626,165.833185 C166.574188,165.836352 164.775639,165.804685 162.992978,165.735018 C164.254504,164.452507 165.255464,162.853327 165.728933,161.71015 L165.728933,161.71015 L165.903704,161.30798 C166.014922,161.057811 166.148383,160.750642 166.253245,160.506807 L166.253245,160.506807 Z M168.623772,143.514329 C170.667,143.514329 172.516392,144.340836 173.854182,145.674014 C175.19515,147.007192 176.021338,148.850208 176.021338,150.886392 C176.021338,152.922576 175.191972,154.765591 173.854182,156.098769 C172.516392,157.435114 170.667,158.258454 168.623772,158.258454 C166.580543,158.258454 164.731152,157.431947 163.393361,156.098769 C162.052394,154.765591 161.226205,152.922576 161.226205,150.886392 C161.226205,148.850208 162.055571,147.007192 163.393361,145.674014 C164.731152,144.33767 166.580543,143.514329 168.623772,143.514329 Z" id="Combined-Shape" fill="#E4DEED"></path>
            <path d="M168.385448,170.909395 C175.211038,170.928395 181.826903,170.434391 188.255287,169.319715 C194.295998,168.271539 200.161938,166.675526 205.87535,164.436673 C206.139095,163.578499 206.40284,162.675992 206.679296,161.725984 C201.432997,163.784335 196.06277,165.313847 190.549549,166.38419 C186.857121,167.099863 183.097963,167.6097 179.268896,167.929536 C179.097303,168.01187 178.903466,168.059371 178.700096,168.056204 C178.51897,168.053037 178.337844,168.040371 178.156718,168.018204 C174.947293,168.255706 171.690203,168.36654 168.385448,168.35704 C165.153779,168.36654 161.969775,168.262039 158.830258,168.034037 C158.696796,168.046704 158.560157,168.056204 158.423518,168.056204 C158.248748,168.059371 158.08351,168.024537 157.934161,167.96437 C153.958922,167.644534 150.053591,167.125196 146.221346,166.38419 C141.432629,165.456349 136.751953,164.180171 132.169783,162.511324 C132.449416,163.467665 132.719516,164.37334 132.992794,165.228347 C138.372554,167.175863 143.888952,168.575542 149.557878,169.493883 C155.652609,170.485058 161.925288,170.925228 168.385448,170.909395 Z" id="Path" fill="#E4DEED"></path>
            <g id="Group-7" transform="translate(0.000000, 120.640000)">
                <path d="M143.886256,1.82464455 C144.246157,1.82464455 144.571987,1.97052333 144.807841,2.20637742 C145.043695,2.4422315 145.189573,2.76806089 145.189573,3.12796209 L145.189573,3.12796209 L145.189573,84.2320379 C145.189573,84.5919391 145.043695,84.9177685 144.807841,85.1536226 C144.571987,85.3894767 144.246157,85.5353555 143.886256,85.5353555 L143.886256,85.5353555 L3.12796209,85.5353555 C2.76806089,85.5353555 2.4422315,85.3894767 2.20637742,85.1536226 C1.97052333,84.9177685 1.82464455,84.5919391 1.82464455,84.2320379 L1.82464455,84.2320379 L1.82464455,3.12796209 C1.82464455,2.76806089 1.97052333,2.4422315 2.20637742,2.20637742 C2.4422315,1.97052333 2.76806089,1.82464455 3.12796209,1.82464455 L3.12796209,1.82464455 Z" id="Rectangle" stroke="#680966" stroke-width="3.6492891" fill="#FFFFFF"></path>
                <rect id="Rectangle" fill="#680966" x="115.734597" y="72.8" width="18.7677725" height="3.12" rx="1.56"></rect>
                <rect id="Rectangle" fill="#E4DEED" x="15.6398104" y="8.32" width="102.919499" height="20.8"></rect>
                <g id="Group-6" transform="translate(123.033175, 8.320000)" fill-rule="nonzero">
                    <path d="M16.7403897,0 L0.984728805,0 C0.479724582,0 0.0635079566,0.401481798 0.00662499083,0.91871403 L0,1.04 L0,9.36 C0,9.89334927 0.380144895,10.3329274 0.869888623,10.3930032 L0.984728805,10.4 L16.7403897,10.4 C17.2453939,10.4 17.6616105,9.9985182 17.7184935,9.48128597 L17.7251185,9.36 L17.7251185,1.04 C17.7251185,0.506650727 17.3449736,0.0670725529 16.8552299,0.00699684058 L16.7403897,0 Z" id="Shape" fill="#680966"></path>
                    <polygon id="Path" fill="#E4DEED" points="15.6398104 2.08 15.6398104 8.32 2.08530806 8.32 2.08530806 2.08"></polygon>
                </g>
                <path d="M118.862559,2.83542272 L118.862559,27.4390602 C118.862559,30.8941117 121.663432,33.6949843 125.118483,33.6949843 L147.014218,33.6949843 L147.014218,33.6949843" id="Path-21" stroke="#680966" stroke-width="2.08530806"></path>
                <path d="M0.322575864,2.83542272 L0.322575864,27.4390602 C0.322575864,30.8941117 3.12344852,33.6949843 6.57850003,33.6949843 L15.6398104,33.6949843 L15.6398104,33.6949843" id="Path-21-Copy" stroke="#680966" stroke-width="2.08530806" transform="translate(7.981193, 18.265204) scale(-1, 1) translate(-7.981193, -18.265204) "></path>
                <line x1="15.6398104" y1="8.32" x2="118.862559" y2="8.32" id="Path-22" stroke="#680966" stroke-width="1.66824645"></line>
                <line x1="15.6398104" y1="13" x2="118.862559" y2="13" id="Path-22-Copy-4" stroke="#680966" stroke-width="1.56398104"></line>
                <line x1="15.6398104" y1="18.2" x2="118.862559" y2="18.2" id="Path-22-Copy" stroke="#680966" stroke-width="1.56398104"></line>
                <line x1="15.6398104" y1="23.4" x2="118.862559" y2="23.4" id="Path-22-Copy-2" stroke="#680966" stroke-width="1.56398104"></line>
                <line x1="15.6398104" y1="28.6" x2="118.862559" y2="28.6" id="Path-22-Copy-5" stroke="#680966" stroke-width="1.66824645"></line>
            </g>
        </g>
    </g>
</svg>